HIERARCHY
ROOT Hips
{
	OFFSET 51.601799 -12.659616 95.542297
	CHANNELS 6 Xposition Yposition Zposition Xrotation Yrotation Zrotation
	JOINT spine
	{
		OFFSET 0.000000 -0.458069 7.965683
		CHANNELS 3 Xrotation Yrotation Zrotation
		JOINT spine1
		{
			OFFSET 0.000000 -0.000001 10.243103
			CHANNELS 3 Xrotation Yrotation Zrotation
			JOINT spine2
			{
				OFFSET 0.000000 -0.000002 9.814751
				CHANNELS 3 Xrotation Yrotation Zrotation
				JOINT Neck
				{
					OFFSET 0.000000 -1.201384 25.198601
					CHANNELS 3 Xrotation Yrotation Zrotation
					JOINT Head
					{
						OFFSET 0.000000 -0.000002 7.613144
						CHANNELS 3 Xrotation Yrotation Zrotation
						End Site
						{
							OFFSET 0.000000 6.077328 18.428101
						}
					}
				}
				JOINT RightShoulder
				{
					OFFSET -4.132698 0.575449 10.599205
					CHANNELS 3 Xrotation Yrotation Zrotation
					JOINT RightArm
					{
						OFFSET 0.000000 -0.000002 13.901794
						CHANNELS 3 Xrotation Yrotation Zrotation
						JOINT RightArmRoll
						{
							OFFSET 0.000000 -0.000001 7.017883
							CHANNELS 3 Xrotation Yrotation Zrotation
							JOINT RightForeArm
							{
								OFFSET 0.000000 -0.000004 20.440598
								CHANNELS 3 Xrotation Yrotation Zrotation
								JOINT RightForeArmRoll
								{
									OFFSET 0.000000 -0.000001 7.875168
									CHANNELS 3 Xrotation Yrotation Zrotation
									JOINT RightHand
									{
										OFFSET 0.000000 -0.000003 15.803696
										CHANNELS 3 Xrotation Yrotation Zrotation
										End Site
										{
											OFFSET 0.000000 0.000000 0.100006
										}
									}
								}
							}
						}
					}
				}
				JOINT LeftShoulder
				{
					OFFSET 4.132698 0.575449 10.599205
					CHANNELS 3 Xrotation Yrotation Zrotation
					JOINT LeftArm
					{
						OFFSET 0.000000 -0.000002 13.901794
						CHANNELS 3 Xrotation Yrotation Zrotation
						JOINT LeftArmRoll
						{
							OFFSET 0.000000 -0.000001 7.017883
							CHANNELS 3 Xrotation Yrotation Zrotation
							JOINT LeftForeArm
							{
								OFFSET 0.000000 -0.000004 20.440598
								CHANNELS 3 Xrotation Yrotation Zrotation
								JOINT LeftForeArmRoll
								{
									OFFSET 0.000000 -0.000001 7.875168
									CHANNELS 3 Xrotation Yrotation Zrotation
									JOINT LeftHand
									{
										OFFSET 0.000000 -0.000003 15.803696
										CHANNELS 3 Xrotation Yrotation Zrotation
										End Site
										{
											OFFSET 0.000000 0.000000 0.100006
										}
									}
								}
							}
						}
					}
				}
			}
		}
	}
	JOINT RightUpLeg
	{
		OFFSET -7.060478 1.086100 -1.294701
		CHANNELS 3 Xrotation Yrotation Zrotation
		JOINT RightUpLegRoll
		{
			OFFSET 0.000000 -0.000003 18.530800
			CHANNELS 3 Xrotation Yrotation Zrotation
			JOINT RightLeg
			{
				OFFSET 0.000000 0.000004 -22.947601
				CHANNELS 3 Xrotation Yrotation Zrotation
				JOINT RightLegRoll
				{
					OFFSET 0.000000 -0.000004 23.022598
					CHANNELS 3 Xrotation Yrotation Zrotation
					JOINT RightFoot
					{
						OFFSET 0.000000 -0.000004 19.162506
						CHANNELS 3 Xrotation Yrotation Zrotation
						JOINT RightToeBase
						{
							OFFSET 0.000000 -0.000002 16.018799
							CHANNELS 3 Xrotation Yrotation Zrotation
							End Site
							{
								OFFSET 0.006790 0.894204 7.757812
							}
						}
					}
				}
			}
		}
	}
	JOINT LeftUpLeg
	{
		OFFSET 7.060478 1.086100 -1.294701
		CHANNELS 3 Xrotation Yrotation Zrotation
		JOINT LeftUpLegRoll
		{
			OFFSET 0.000000 -0.000003 18.530899
			CHANNELS 3 Xrotation Yrotation Zrotation
			JOINT LeftLeg
			{
				OFFSET 0.000000 -0.000004 22.947502
				CHANNELS 3 Xrotation Yrotation Zrotation
				JOINT LeftLegRoll
				{
					OFFSET 0.000000 -0.000004 23.235504
					CHANNELS 3 Xrotation Yrotation Zrotation
					JOINT LeftFoot
					{
						OFFSET 0.000000 -0.000003 18.949600
						CHANNELS 3 Xrotation Yrotation Zrotation
						JOINT LeftToeBase
						{
							OFFSET 0.000000 -0.000003 16.018799
							CHANNELS 3 Xrotation Yrotation Zrotation
							End Site
							{
								OFFSET -0.030430 0.894206 7.757812
							}
						}
					}
				}
			}
		}
	}
}
MOTION
Frames: 8
Frame Time: 0.041667
49.909595 -14.366318 95.687393 -0.851187 1.174809 2.091673 -2.161367 -0.107875 -0.059789 -0.320052 -0.232172 -0.122898 1.325031 -0.233627 -0.120103 18.232111 0.063587 -0.862799 2.783438 -0.926848 -0.753180 0.911606 -72.358512 -0.596515 -50.948635 -112.621787 -27.194362 0.000001 -0.000004 0.000001 0.022178 -2.576600 -0.223167 -0.000002 0.000016 -3.041561 -5.000174 -7.999791 0.000025 5.381661 72.844391 -4.212630 -49.322609 113.768350 27.902107 0.000001 0.000001 0.000001 12.011033 0.779722 -0.753765 -0.000000 -0.000004 3.004049 -5.000158 8.000020 0.000004 2.188241 -176.442597 -2.526397 -179.999991 0.000005 -1.152002 176.030723 -2.020143 -0.564145 -0.000004 -0.000002 0.052882 69.062167 6.962919 1.938626 25.600056 -7.346834 0.212418 0.576300 173.838300 0.047224 -0.000005 -0.000005 -1.169250 -6.822326 2.207454 0.337458 0.000002 -0.000005 -0.145942 70.761415 -6.931788 -1.898221 25.557875 7.344161 -0.139300 
49.892395 -14.359916 95.684196 -0.841484 1.173002 2.081208 -2.164692 -0.107671 -0.061978 -0.326705 -0.230279 -0.127340 1.318381 -0.231786 -0.124563 18.257121 0.074674 -0.855454 2.770259 -0.931396 -0.745302 0.974882 -72.368812 -0.528489 -50.964519 -112.612826 -27.209211 0.000001 -0.000004 0.000004 0.022178 -2.579720 -0.224759 -0.000003 0.000016 -3.041564 -5.000172 -7.999791 0.000025 5.355477 72.862744 -4.181799 -49.343739 113.744035 27.982177 0.000001 -0.000000 0.000001 11.891397 0.870400 -0.753049 -0.000001 -0.000004 3.004051 -5.000159 8.000020 0.000005 2.172201 -176.435548 -2.518298 -179.999991 0.000005 -1.152002 176.024712 -2.030103 -0.565049 -0.000004 -0.000002 0.052882 69.060705 6.962948 1.938624 25.598950 -7.346837 0.210457 0.562765 173.839297 0.048779 -0.000005 -0.000005 -1.169250 -6.827441 2.209575 0.337739 0.000002 -0.000005 -0.145914 70.758861 -6.931782 -1.898279 25.558682 7.344155 -0.141335 
49.892895 -14.363815 95.685799 -0.831409 1.171046 2.070463 -2.168216 -0.107484 -0.064243 -0.333751 -0.228368 -0.131938 1.311331 -0.229930 -0.129178 18.283721 0.087026 -0.847940 2.755976 -0.936885 -0.737133 1.041052 -72.379166 -0.457320 -50.981925 -112.603093 -27.225467 0.000001 -0.000004 -0.000001 0.022178 -2.582880 -0.226410 -0.000002 0.000017 -3.041561 -5.000173 -7.999790 0.000024 5.328600 72.882927 -4.149970 -49.368741 113.718565 28.067004 -0.000001 0.000000 0.000002 11.768490 0.963019 -0.751920 0.000001 -0.000005 3.004051 -5.000155 8.000020 0.000005 2.155568 -176.429510 -2.509876 -179.999991 0.000005 -1.152001 176.018524 -2.040064 -0.564965 -0.000003 -0.000001 0.052883 69.059223 6.962942 1.938615 25.597739 -7.346839 0.208378 0.549068 173.841292 0.050481 -0.000005 -0.000005 -1.169250 -6.831974 2.211808 0.338008 0.000002 -0.000005 -0.145872 70.755876 -6.931807 -1.898269 25.559490 7.344152 -0.143430 
49.891396 -14.363513 95.687103 -0.821078 1.168989 2.059533 -2.171875 -0.107308 -0.066560 -0.341075 -0.226441 -0.136645 1.304010 -0.228060 -0.133903 18.311529 0.100271 -0.840313 2.740908 -0.943037 -0.728762 1.109297 -72.389705 -0.383904 -50.998840 -112.593134 -27.241163 0.000003 -0.000003 0.000003 0.022178 -2.586069 -0.228104 -0.000004 0.000017 -3.041558 -5.000173 -7.999791 0.000026 5.301233 72.904517 -4.117430 -49.397420 113.691873 28.156099 0.000000 0.000000 -0.000001 11.643208 1.056998 -0.750359 -0.000000 -0.000005 3.004050 -5.000154 8.000020 0.000003 2.138556 -176.421491 -2.501138 -179.999991 0.000005 -1.152002 176.012213 -2.051031 -0.564957 -0.000003 -0.000001 0.052882 69.057741 6.962936 1.938609 25.596522 -7.346829 0.206223 0.535268 173.842262 0.052267 -0.000005 -0.000005 -1.169250 -6.836109 2.214112 0.338269 0.000002 -0.000005 -0.145819 70.752598 -6.931866 -1.898183 25.560296 7.344158 -0.145549 
49.886395 -14.358318 95.684700 -0.810594 1.166862 2.048499 -2.175618 -0.107139 -0.068908 -0.348559 -0.224506 -0.141415 1.296520 -0.226182 -0.138690 18.340040 0.114036 -0.832626 2.725406 -0.949576 -0.720274 1.178774 -72.400306 -0.309144 -51.015762 -112.583183 -27.256662 0.000001 -0.000004 0.000001 0.022179 -2.589270 -0.229830 -0.000001 0.000016 -3.041559 -5.000173 -7.999790 0.000028 5.273569 72.926811 -4.084461 -49.428071 113.664600 28.247526 -0.000002 0.000000 0.000001 11.516662 1.151771 -0.748371 0.000002 -0.000005 3.004050 -5.000155 8.000020 0.000003 2.121296 -176.414443 -2.492296 -179.999991 0.000005 -1.152002 176.005820 -2.060991 -0.564871 -0.000004 -0.000001 0.052882 69.056259 6.962930 1.938601 25.595214 -7.346837 0.204021 0.521400 173.843259 0.054108 -0.000005 -0.000004 -1.169250 -6.840002 2.216457 0.338525 0.000002 -0.000004 -0.145761 70.749183 -6.931852 -1.898294 25.561107 7.344153 -0.147683 
49.883995 -14.359917 95.684792 -0.800073 1.164715 2.037445 -2.179386 -0.106971 -0.071265 -0.356087 -0.222567 -0.146201 1.289000 -0.224301 -0.143494 18.368648 0.127948 -0.824935 2.709783 -0.956224 -0.711758 1.248647 -72.410879 -0.233970 -51.032547 -112.573143 -27.272040 0.000002 -0.000004 0.000002 0.022183 -2.592491 -0.231557 0.000000 0.000017 -3.041559 -5.000172 -7.999790 0.000028 5.245792 72.949412 -4.051343 -49.460726 113.636767 28.341187 0.000001 0.000000 -0.000000 11.389737 1.246742 -0.745955 -0.000001 -0.000005 3.004049 -5.000155 8.000020 0.000004 2.103981 -176.407421 -2.483412 -179.999991 0.000005 -1.152002 175.999399 -2.071944 -0.564872 -0.000004 -0.000001 0.052882 69.054777 6.962925 1.938593 25.593999 -7.346829 0.201818 0.507519 173.845240 0.055973 -0.000005 -0.000004 -1.169250 -6.843846 2.218822 0.338781 0.000002 -0.000005 -0.145701 70.745672 -6.931877 -1.898317 25.561921 7.344161 -0.149833 
49.879498 -14.366118 95.682205 -0.789616 1.162589 2.026433 -2.183105 -0.106799 -0.073607 -0.363542 -0.220631 -0.150959 1.281540 -0.222422 -0.148269 18.396959 0.141633 -0.817288 2.694353 -0.962701 -0.703300 1.318078 -72.421445 -0.159269 -51.049326 -112.563116 -27.287530 0.000002 -0.000004 0.000001 0.022178 -2.595690 -0.233271 -0.000002 0.000016 -3.041562 -5.000173 -7.999791 0.000027 5.218026 72.971596 -4.018290 -49.491370 113.609446 28.432491 0.000001 0.000000 0.000000 11.263428 1.341358 -0.743136 -0.000001 -0.000005 3.004051 -5.000155 8.000019 0.000002 2.086775 -176.399389 -2.474570 -179.999991 0.000005 -1.152002 175.993020 -2.082898 -0.564873 -0.000004 -0.000002 0.052882 69.053294 6.962919 1.938584 25.592685 -7.346839 0.199626 0.493667 173.846237 0.057802 -0.000005 -0.000005 -1.169250 -6.847789 2.221158 0.339040 0.000002 -0.000005 -0.145644 70.742284 -6.931932 -1.898238 25.562721 7.344157 -0.151958 
49.880497 -14.366018 95.684196 -0.779341 1.160532 2.015546 -2.186735 -0.106620 -0.075913 -0.370806 -0.218702 -0.155640 1.274279 -0.220550 -0.152968 18.424574 0.154719 -0.809742 2.679452 -0.968731 -0.694985 1.386209 -72.431779 -0.085989 -51.066463 -112.553239 -27.303428 0.000005 -0.000004 0.000001 0.022180 -2.598869 -0.234957 -0.000000 0.000017 -3.041562 -5.000174 -7.999790 0.000025 5.190504 72.992859 -3.985623 -49.518451 113.583355 28.519725 0.000002 0.000001 -0.000001 11.138743 1.435030 -0.739949 -0.000001 -0.000005 3.004048 -5.000155 8.000020 0.000001 2.069837 -176.392354 -2.465942 -179.999991 0.000005 -1.152002 175.986722 -2.093851 -0.564874 -0.000003 -0.000001 0.052882 69.051826 6.962949 1.938582 25.591481 -7.346838 0.197487 0.479888 173.848204 0.059574 -0.000005 -0.000004 -1.169250 -6.852004 2.223451 0.339304 0.000001 -0.000005 -0.145593 70.738985 -6.931955 -1.898247 25.563533 7.344154 -0.154073 
